<svg width="1200" height="630" viewBox="0 0 1200 630" xmlns="http://www.w3.org/2000/svg">
  <defs>
    <linearGradient id="bgkpi" x1="0" y1="0" x2="1" y2="1">
      <stop offset="0%" stop-color="#0d3d22"/>
      <stop offset="100%" stop-color="#114d2e"/>
    </linearGradient>
  </defs>
  <rect width="1200" height="630" fill="url(#bgkpi)"/>
  <circle cx="1080" cy="100" r="220" fill="#6ee09e" opacity="0.10"/>
  <circle cx="80" cy="560" r="180" fill="#0a2e1a" opacity="0.5"/>
  <line x1="0" y1="210" x2="1200" y2="210" stroke="#6ee09e" stroke-width="1" opacity="0.07"/>
  <line x1="0" y1="420" x2="1200" y2="420" stroke="#6ee09e" stroke-width="1" opacity="0.07"/>
  <line x1="400" y1="0" x2="400" y2="630" stroke="#6ee09e" stroke-width="1" opacity="0.07"/>
  <line x1="800" y1="0" x2="800" y2="630" stroke="#6ee09e" stroke-width="1" opacity="0.07"/>
  <text x="80" y="78" font-family="system-ui,sans-serif" font-size="17" font-weight="500" fill="rgba(255,255,255,0.38)" letter-spacing="1">inflasjonskalkulator.no</text>
  <rect x="80" y="98" width="60" height="5" rx="2.5" fill="#6ee09e"/>
  <text x="80" y="195" font-family="system-ui,sans-serif" font-size="68" font-weight="800" fill="#ffffff" letter-spacing="-2">KPI mars 2026</text>
  <text x="80" y="277" font-family="system-ui,sans-serif" font-size="68" font-weight="800" fill="#6ee09e" letter-spacing="-2">+3.6 % inflasjon</text>
  <text x="80" y="328" font-family="system-ui,sans-serif" font-size="25" font-weight="300" fill="rgba(255,255,255,0.52)">Offisielle tall fra SSB – publisert 10. mars 2026</text>
  <rect x="80" y="390" width="620" height="2" fill="rgba(255,255,255,0.1)"/>
  <rect x="80" y="420" width="175" height="90" rx="12" fill="rgba(255,255,255,0.07)"/>
  <text x="167" y="460" font-family="system-ui,sans-serif" font-size="30" font-weight="800" fill="#6ee09e" text-anchor="middle">+1.6 %</text>
  <text x="167" y="488" font-family="system-ui,sans-serif" font-size="14" fill="rgba(255,255,255,0.45)" text-anchor="middle">Matvarer</text>
  <rect x="275" y="420" width="175" height="90" rx="12" fill="rgba(255,255,255,0.07)"/>
  <text x="362" y="460" font-family="system-ui,sans-serif" font-size="30" font-weight="800" fill="#6ee09e" text-anchor="middle">+4.9 %</text>
  <text x="362" y="488" font-family="system-ui,sans-serif" font-size="14" fill="rgba(255,255,255,0.45)" text-anchor="middle">Str&#248;m</text>
  <rect x="470" y="420" width="175" height="90" rx="12" fill="rgba(255,255,255,0.07)"/>
  <text x="557" y="460" font-family="system-ui,sans-serif" font-size="30" font-weight="800" fill="#6ee09e" text-anchor="middle">+3.6 %</text>
  <text x="557" y="488" font-family="system-ui,sans-serif" font-size="14" fill="rgba(255,255,255,0.45)" text-anchor="middle">KPI totalt</text>
  <rect x="80" y="555" width="180" height="36" rx="18" fill="#6ee09e" opacity="0.18"/>
  <rect x="80" y="555" width="180" height="36" rx="18" fill="none" stroke="#6ee09e" stroke-width="1" opacity="0.45"/>
  <text x="170" y="578" font-family="system-ui,sans-serif" font-size="13" font-weight="600" fill="#6ee09e" text-anchor="middle" letter-spacing="1">Kilde: SSB / KPI</text>
</svg>